<?xml version="1.0" encoding="iso-8859-1"?>
<!-- Generator: Adobe Illustrator 19.0.0, SVG Export Plug-In . SVG Version: 6.00 Build 0)  -->
<svg xmlns="http://www.w3.org/2000/svg" xmlns:xlink="http://www.w3.org/1999/xlink" version="1.1" id="Layer_1" x="0px" y="0px" viewBox="0 0 512 512" style="enable-background:new 0 0 512 512;" xml:space="preserve">
<circle style="fill:#0082D1;" cx="255.996" cy="255.996" r="255.996"/>
<g>
	<path style="fill:#004DB1;" d="M355.352,118.162l-30.123,10.757L506.456,309.17c3.624-17.154,5.544-34.937,5.544-53.17   c0-5.7-0.206-11.351-0.573-16.957L366.11,88.039L355.352,118.162z"/>
	<path style="fill:#004DB1;" d="M499.162,336.22L255.999,106.172l-10.757,30.123l-17.302,6.179   c1.052-5.766,2.353-11.445,3.926-17.01l-52.787-52.787C112.46,102.732,66.092,169.731,66.092,247.561   c0,56.311,24.273,106.951,62.925,142.033l122.055,122.343c1.64,0.031,3.281,0.063,4.929,0.063   C369.363,512,465.5,438.309,499.162,336.22z"/>
</g>
<g>
	<path style="fill:#FFFFFF;" d="M172.126,123.081c0-17.474,2.425-34.38,6.953-50.404C112.46,102.732,66.092,169.731,66.092,247.561   c0,105.907,85.855,191.762,191.762,191.762c92.938,0,170.426-66.117,188.012-153.879c-26.345,14.43-56.581,22.639-88.739,22.639   C254.954,308.084,172.126,225.255,172.126,123.081z"/>
	<polygon style="fill:#FFFFFF;" points="266.758,157.81 296.881,147.053 266.758,136.295 255.999,106.172 245.242,136.295    215.119,147.053 245.242,157.81 255.999,187.934  "/>
</g>
<g>
	<polygon style="fill:#E1E1E3;" points="376.867,139.677 406.99,128.92 376.867,118.162 366.11,88.039 355.352,118.162    325.229,128.92 355.352,139.677 366.11,169.8  "/>
	<polygon style="fill:#E1E1E3;" points="345.39,253.007 375.514,242.249 345.39,231.492 334.633,201.369 323.875,231.492    293.752,242.249 323.875,253.007 334.633,283.13  "/>
	<polygon style="fill:#E1E1E3;" points="266.758,136.296 255.999,106.172 255.979,106.23 255.979,187.875 255.999,187.934    266.758,157.81 296.881,147.053  "/>
	<path style="fill:#E1E1E3;" d="M357.127,308.083c-37.334,0-72.077-11.069-101.149-30.089v161.306   c0.625,0.006,1.248,0.024,1.875,0.024c92.938,0,170.426-66.117,188.012-153.879C419.521,299.873,389.285,308.083,357.127,308.083z"/>
</g>
<g>
</g>
<g>
</g>
<g>
</g>
<g>
</g>
<g>
</g>
<g>
</g>
<g>
</g>
<g>
</g>
<g>
</g>
<g>
</g>
<g>
</g>
<g>
</g>
<g>
</g>
<g>
</g>
<g>
</g>
</svg>
